
<svg x="0px" contentScriptType="text/ecmascript" y="0px" width="14.0px"
     xmlns:xlink="http://www.w3.org/1999/xlink" zoomAndPan="magnify"
     contentStyleType="text/css" height="14.0px"
     preserveAspectRatio="xMidYMid meet" xmlns="http://www.w3.org/2000/svg"
     version="1.0">
    <g id="Facilities_14-layer0.39666487763394453"/>
    <g id="ICONS0.24560098568689925">
        <g id="Facilities_14_1_0.6928869483345836">
            <path style="fill:#FFFFFF;"
                  d="M7,1L2,3.77V13h4v-3h2v3h4V3.77L7,1z M5,12H3v-2h2V12z M5,9H3V7h2V9z M5,6H3V4h2V6z M8,9H6V7h2V9z     M8,6H6V4h2V6z M11,12H9v-2h2V12z M11,9H9V7h2V9z M11,6H9V4h2V6z"/>
        </g>
    </g>
</svg>