
<svg x="0px" contentScriptType="text/ecmascript" y="0px" width="14.0px"
     xmlns:xlink="http://www.w3.org/1999/xlink" zoomAndPan="magnify"
     contentStyleType="text/css" height="14.0px"
     preserveAspectRatio="xMidYMid meet" xmlns="http://www.w3.org/2000/svg"
     version="1.0">
    <g id="Going_out_14-layer0.8467856660206393"/>
    <g id="ICONS0.5098551367567826">
        <g id="Going_out_14_9_0.1275879900470367">
            <path style="fill:#FFFFFF;"
                  d="M3,2v6.16C3,10.822,4.94,13,7.5,13c2.561,0,4.5-2.178,4.5-4.84V2H3z M4,6V5c0-0.55,0.45-1,1-1h1    c0.549,0,1,0.45,1,1v1H4z M7.5,11.386c-1.479,0-2.738-1.185-3.135-2.485h6.241C10.217,10.201,8.979,11.386,7.5,11.386z M11,6H8V5    c0-0.55,0.45-1,1-1h1c0.549,0,1,0.45,1,1V6z"/>
        </g>
    </g>
</svg>