
<svg x="0px" contentScriptType="text/ecmascript" y="0px" width="14.0px"
     xmlns:xlink="http://www.w3.org/1999/xlink" zoomAndPan="magnify"
     contentStyleType="text/css" height="14.0px"
     preserveAspectRatio="xMidYMid meet" xmlns="http://www.w3.org/2000/svg"
     version="1.0">
    <g id="Shopping_14-layer0.3440259280295165"/>
    <g id="ICONS0.5176282009644289">
        <g id="Shopping_14_5_0.24651640859235835">
            <path style="fill:#FFFFFF;"
                  d="M11,4h-1c0-1.65-1.35-3-3-3S4,2.35,4,4H3C2.45,4,2.01,4.45,2.01,5L2,12c0,0.55,0.45,1,1,1h8    c0.549,0,1-0.45,1-1V5C12,4.45,11.549,4,11,4z M5,6H4V5h1V6z M7,2c1.104,0,2,0.897,2,2H5C5,2.897,5.896,2,7,2z M10,6H9V5h1V6z"/>
        </g>
    </g>
</svg>