
<svg x="0px" contentScriptType="text/ecmascript" y="0px" width="14.0px"
     xmlns:xlink="http://www.w3.org/1999/xlink" zoomAndPan="magnify"
     contentStyleType="text/css" height="14.0px"
     preserveAspectRatio="xMidYMid meet" xmlns="http://www.w3.org/2000/svg"
     version="1.0">
    <g id="Car_rental_14-layer0.2177816627222715"/>
    <g id="ICONS0.6825186543816268">
        <g id="Car_rental_140.12326392309989631">
            <path style="fill:#FFFFFF;"
                  d="M7,2L6,1H3.5C3.224,1,3.01,1.225,3.01,1.5L3,3.5C3,3.775,3.224,4,3.5,4H6l1-1h4V2H7z M5,3H4V2h1V3z     M11.959,8.035C11.955,8.023,11.956,8.013,11.949,8H12.5C12.779,8,13,7.78,13,7.5S12.779,7,12.5,7h-1.091l-0.442-0.82    C10.617,5.53,9.739,5,9,5H4.867C4.209,5,3.379,5.53,3.029,6.18L2.588,7H1.5C1.217,7,1.01,7.22,1.01,7.5S1.217,8,1.5,8h0.547    C2.04,8.014,2.041,8.023,2.037,8.035C1.455,8.123,1,8.606,1,9.213V13h2v-1h8v1h2V9.213C13,8.605,12.541,8.122,11.959,8.035z     M3.908,6.65C4.098,6.31,4.598,6,4.867,6H9c0.367,0,0.908,0.33,1.088,0.65L10.818,8H3.178L3.908,6.65z M4,11H2V9h2V11z M12,11h-2    V9h2V11z"/>
        </g>
    </g>
</svg>