
<svg x="0px" contentScriptType="text/ecmascript" y="0px" width="14.0px"
     xmlns:xlink="http://www.w3.org/1999/xlink" zoomAndPan="magnify"
     contentStyleType="text/css" height="14.0px"
     preserveAspectRatio="xMidYMid meet" xmlns="http://www.w3.org/2000/svg"
     version="1.0">
    <g id="Public_toilet_14-layer0.29653240502678935"/>
    <g id="ICONS0.5387119868887593">
        <g id="Public_toilet_140.6299901961840814">
            <path style="fill:#FFFFFF;"
                  d="M6.814,9.535C6.916,9.791,6.775,10,6.5,10H5v2.5C5,12.775,4.775,13,4.5,13h-1    C3.225,13,3,12.775,3,12.5V10H1.5c-0.275,0-0.416-0.209-0.314-0.465l1.629-4.07C2.916,5.209,3.225,5,3.5,5h1    c0.275,0,0.584,0.209,0.686,0.465L6.814,9.535z M11.5,5h-3C8.225,5,8.01,5.225,8.01,5.5L8,8.5C8,8.775,8.225,9,8.5,9    S9,8.775,9,8.5v4C9,12.775,9.225,13,9.5,13h1c0.275,0,0.5-0.225,0.5-0.5v-4C11,8.775,11.225,9,11.5,9S12,8.775,12,8.5v-3    C12,5.225,11.775,5,11.5,5z M5,2H3v2h2V2z M11,2H9v2h2V2z"/>
        </g>
    </g>
</svg>