
<svg x="0px" contentScriptType="text/ecmascript" y="0px" width="14.0px"
     xmlns:xlink="http://www.w3.org/1999/xlink" zoomAndPan="magnify"
     contentStyleType="text/css" height="14.0px"
     preserveAspectRatio="xMidYMid meet" xmlns="http://www.w3.org/2000/svg"
     version="1.0">
    <g id="Cinema_14-layer0.44954976512104916"/>
    <g id="ICONS0.14541868736998764">
        <g id="Cinema_14_4_0.6651531158662416">
            <path style="fill:#FFFFFF;"
                  d="M13,8v5l-2.002-2H10v1c0,0.55-0.451,1-1,1H4c-0.55,0-1-0.45-1-1V9c0-0.55,0.45-1,1-1h5    c0.549,0,1,0.45,1,1v1h0.998L13,8z M4,7C2.342,7,1,5.657,1,4s1.342-3,3-3c1.045,0,1.963,0.535,2.5,1.346C7.037,1.535,7.955,1,9,1    c1.658,0,2.99,1.343,2.99,3S10.658,7,9,7H4z M8,5h2V3H8V5z M5,5V3H3v2H5z"/>
        </g>
    </g>
</svg>