
<svg x="0px" contentScriptType="text/ecmascript" y="0px" width="14.0px"
     xmlns:xlink="http://www.w3.org/1999/xlink" zoomAndPan="magnify"
     contentStyleType="text/css" height="14.0px"
     preserveAspectRatio="xMidYMid meet" xmlns="http://www.w3.org/2000/svg"
     version="1.0">
    <g id="Amusement_14-layer0.9986671951043151"/>
    <g id="ICONS0.9765997420355691">
        <g id="Amusement_14_6_0.50014040954909">
            <path style="fill:#FFFFFF;"
                  d="M7,6h1v1H7V6z M13,6v1h-1h-0.051c-0.193,1.727-1.352,3.149-2.934,3.719L10,13H5l0.985-2.28    C4.401,10.15,3.244,8.728,3.051,7H2V6h1.051C3.283,3.92,4.918,2.283,7,2.051V1h1v1.051C10.08,2.283,11.717,3.92,11.949,6H12H13z     M11,6.5C11,4.57,9.43,3,7.5,3S4,4.57,4,6.5c0,1.537,1.002,2.831,2.383,3.301l1.119-2.59L8.619,9.8C9.998,9.33,11,8.036,11,6.5z     M12,2h-1v1h1V2z M11,11h1v-1h-1V11z M4,2H3v1h1V2z M3,11h1v-1H3V11z"/>
        </g>
    </g>
</svg>