
<svg x="0px" contentScriptType="text/ecmascript" y="0px" width="14.0px"
     xmlns:xlink="http://www.w3.org/1999/xlink" zoomAndPan="magnify"
     contentStyleType="text/css" height="14.0px"
     preserveAspectRatio="xMidYMid meet" xmlns="http://www.w3.org/2000/svg"
     version="1.0">
    <g id="Religious_place_14-layer0.2978234417224549"/>
    <g id="ICONS0.26623650402796684">
        <g id="Religious_place_14_5_0.9389763705561605">
            <path style="fill:#FFFFFF;"
                  d="M7,13H2v-2h5V13z M1.898,10H7.1C7.658,9.574,8,9.014,8,8.396c0-0.817-0.314-1.514-1.498-2.23    L4.885,5.172L4.5,2L4.115,5.172L2.496,6.166C1.314,6.883,1,7.579,1,8.396C1,9.014,1.342,9.574,1.898,10z M10,2L8.216,5.57    C9.084,6.348,9.5,7.266,9.5,8.396c0,1.07-0.529,2.063-1.491,2.797L8,11.199V13h1v-2l1-1l1,1v2h2V8L10,2z"/>
        </g>
    </g>
</svg>