
<svg x="0px" contentScriptType="text/ecmascript" y="0px" width="14.0px"
     xmlns:xlink="http://www.w3.org/1999/xlink" zoomAndPan="magnify"
     contentStyleType="text/css" height="14.0px"
     preserveAspectRatio="xMidYMid meet" xmlns="http://www.w3.org/2000/svg"
     version="1.0">
    <g id="Airport_14-layer0.8543804406284771"/>
    <g id="ICONS0.37044369593447624">
        <g id="Airport_14_6_0.6758241017087943">
            <path style="fill:#FFFFFF;"
                  d="M9.016,3.125L2.242,3.086C2.075,3.079,1.906,3.138,1.776,3.267L1.142,3.901    C1.02,4.022,1.018,4.216,1.137,4.335C1.18,4.379,1.289,4.416,1.289,4.416l5.27,1.749C5.535,7.271,4.956,8.029,4.418,8.689    L2.632,8.234v0.002C2.518,8.209,2.394,8.238,2.301,8.32L2.084,8.533l3.43,3.434l0.217-0.215c0,0,0.112-0.221,0.084-0.334l0,0    L5.36,9.631c0.661-0.535,1.37-1.166,2.476-2.189l1.771,5.229c0,0,0.037,0.107,0.081,0.15c0.119,0.118,0.313,0.116,0.434-0.004    l0.635-0.636c0.12-0.118,0.179-0.273,0.181-0.431l0,0l-0.094-6.844c0.638-0.628,2.664-3.086,2-3.75    C12.182,0.492,9.643,2.487,9.016,3.125z"/>
        </g>
    </g>
</svg>