
<svg x="0px" contentScriptType="text/ecmascript" y="0px" width="14.0px"
     xmlns:xlink="http://www.w3.org/1999/xlink" zoomAndPan="magnify"
     contentStyleType="text/css" height="14.0px"
     preserveAspectRatio="xMidYMid meet" xmlns="http://www.w3.org/2000/svg"
     version="1.0">
    <g id="Regional_train_14-layer0.46116779463221835"/>
    <g id="ICONS0.981495288954473">
        <g id="Regional_train_140.5008076882503383">
            <path style="fill:#FFFFFF;"
                  d="M11,13H4v-1h7V13z M12,2.5V10c0,0.55-0.451,1-1,1H4c-0.55,0-1-0.45-1-1l0.002-7.5    C3.002,1.675,3.674,1,4.5,1h6C11.324,1,12,1.675,12,2.5z M6,8H4v2h2V8z M7,3H4v4h3V3z M11,8H9v2h2V8z M11,3H8v4h3V3z"/>
        </g>
    </g>
</svg>