
<svg x="0px" contentScriptType="text/ecmascript" y="0px" width="18.0px"
     xmlns:xlink="http://www.w3.org/1999/xlink" zoomAndPan="magnify"
     contentStyleType="text/css" height="18.0px"
     preserveAspectRatio="xMidYMid meet" xmlns="http://www.w3.org/2000/svg"
     version="1.0">
    <g id="Eat__x26__Drink_18_1_0.6815355735398685">
        <path style="fill:#FFFFFF;"
              d="M7.99,2.5L8,6L7,8v7.5C7,15.779,6.779,16,6.5,16h-2C4.219,16,4,15.779,4,15.5V8L3,6V2.5   C3,2.224,3.224,2,3.5,2c0.275,0,0.49,0.224,0.49,0.5L4,5h1V2.5C5,2.224,5.224,2,5.5,2c0.275,0,0.49,0.224,0.49,0.5L6,5h1V2.5   C7,2.224,7.224,2,7.5,2C7.775,2,7.99,2.224,7.99,2.5z M14.5,2H14c-0.77,0-1.471,0.48-2,1.279C11.38,4.189,11.01,5.52,11.01,7   L11,10.5c0,0.279,0.219,0.5,0.5,0.5H12v4.5c0,0.279,0.219,0.5,0.5,0.5h2c0.279,0,0.5-0.221,0.5-0.5v-13C15,2.221,14.779,2,14.5,2z"/>
    </g>
</svg>