
<svg x="0px" contentScriptType="text/ecmascript" y="0px" width="18.0px"
     xmlns:xlink="http://www.w3.org/1999/xlink" zoomAndPan="magnify"
     contentStyleType="text/css" height="18.0px"
     preserveAspectRatio="xMidYMid meet" xmlns="http://www.w3.org/2000/svg"
     version="1.0">
    <g id="Nature_18_5_0.7974060784157883">
        <path style="fill:#FFFFFF;"
              d="M17,4c0,0,0,6.234-3.465,9.697c-1.561,1.562-3.992,1.693-5.717,0.424L5,16.834   c-0.195,0.193-0.514,0.193-0.707,0l-0.148-0.146c-0.193-0.193-0.193-0.513,0-0.707l2.771-2.77C5.617,11.484,5.729,9.036,7.3,7.463   C10.764,4,17,4,17,4z M5.033,12.973c-0.973-2.188-0.564-4.81,1.188-6.563c0.828-0.827,1.783-1.47,2.775-1.984   C7.783,2.368,6.418,1,6.418,1S2.002,5.417,2,10.322c0.002,1.549,0.809,2.886,2.014,3.668L5.033,12.973z"/>
    </g>
</svg>