
<svg x="0px" contentScriptType="text/ecmascript" y="0px" width="18.0px"
     xmlns:xlink="http://www.w3.org/1999/xlink" zoomAndPan="magnify"
     contentStyleType="text/css" height="18.0px"
     preserveAspectRatio="xMidYMid meet" xmlns="http://www.w3.org/2000/svg"
     version="1.0">
    <g id="Shopping_18-layer0.2581247489378886"/>
    <g id="0.14315318070148175">
        <rect fill="#FFFFFF" width="18" fill-opacity="0" height="18"/>
        <path fill="#FFFFFF"
              d="M15,5h-2c0-2.2-1.801-4-4-4C6.799,1,5.078,2.859,5,5.031L3,5C2.449,5,2.01,5.45,2.01,6L2,16   c0,0.55,0.449,1,1,1h12c0.549,0,1-0.45,1-1V6C16,5.45,15.549,5,15,5z M5,9C4.448,9,4,8.552,4,8s0.448-1,1-1s1,0.448,1,1   S5.552,9,5,9z M9,2c1.654,0,3,1.346,3,3H6C6,3.346,7.346,2,9,2z M13,9c-0.553,0-1-0.448-1-1s0.447-1,1-1s1,0.448,1,1S13.553,9,13,9   z"/>
    </g>
</svg>