
<svg x="0px" contentScriptType="text/ecmascript" y="0px" width="18.0px"
     xmlns:xlink="http://www.w3.org/1999/xlink" zoomAndPan="magnify"
     contentStyleType="text/css" height="18.0px"
     preserveAspectRatio="xMidYMid meet" xmlns="http://www.w3.org/2000/svg"
     version="1.0">
    <g id="Public_transport_18-layer0.8635000029657792"/>
    <g id="0.28176597953014815">
        <g id="0.4773245190626604">
            <path fill="#FFFFFF"
                  d="M12,9.5C12,9.225,11.775,9,11.5,9c0,0-1.08-0.01-1.119,0l-0.16-0.619C10.031,7.621,9.236,7,8.453,7H8V6.5    C8,6.225,7.775,6,7.5,6h-2C5.225,6,5,6.225,5,6.5V7H4.547C3.765,7,2.969,7.621,2.779,8.381L2.619,9C2.58,8.99,1.5,9,1.5,9    C1.225,9,1.01,9.225,1.01,9.5c0,0.275,0.215,0.5,0.49,0.5h0.875l-0.004,0.014C1.607,10.08,1.01,10.719,1.01,11.5L1,14.5    C1,14.775,1.225,15,1.5,15H2v0.5C2,15.775,2.225,16,2.5,16h1C3.775,16,4,15.775,4,15.5V15h5v0.5C9,15.775,9.225,16,9.5,16h1    c0.275,0,0.5-0.225,0.5-0.5V15h0.5c0.275,0,0.5-0.225,0.5-0.5v-3c0-0.781-0.605-1.42-1.371-1.486L10.625,10H11.5    C11.775,10,12,9.775,12,9.5z M3,13c-0.552,0-1-0.447-1-1s0.448-1,1-1s1,0.447,1,1S3.552,13,3,13z M3.404,10L3.75,8.623    C3.828,8.309,4.223,8,4.547,8h3.906c0.324,0,0.72,0.309,0.799,0.623L9.596,10H3.404z M11,12c0,0.553-0.447,1-1,1    c-0.552,0-1-0.447-1-1s0.448-1,1-1C10.553,11,11,11.447,11,12z"/>
            <path fill="#FFFFFF"
                  d="M16.5,6H16V5c0-1.1-0.9-2-2-2H9C7.9,3,7.01,3.9,7.01,5H7.5c0.656,0,1.213,0.428,1.416,1.018    C8.945,6.015,8.971,6,9,6h5c0.549,0,1,0.45,1,1v3h-2.092c-0.047,0.131-0.105,0.257-0.186,0.368C12.898,10.71,13,11.096,13,11.5V12    h1c0.553,0,1,0.447,1,1s-0.447,1-1,1c-0.032,0-0.061-0.016-0.092-0.019H13V15.5c0,0.275,0.225,0.5,0.5,0.5h1    c0.275,0,0.5-0.225,0.5-0.5V15c0.549,0,1-0.45,1-1V8h0.5C16.775,8,17,7.775,17,7.5v-1C17,6.225,16.775,6,16.5,6z M13.5,5h-4    C9.225,5,9,4.775,9,4.5S9.225,4,9.5,4h4C13.775,4,14,4.225,14,4.5S13.775,5,13.5,5z"/>
        </g>
    </g>
</svg>