
<svg x="0px" contentScriptType="text/ecmascript" y="0px" width="18.0px"
     xmlns:xlink="http://www.w3.org/1999/xlink" zoomAndPan="magnify"
     contentStyleType="text/css" height="18.0px"
     preserveAspectRatio="xMidYMid meet" xmlns="http://www.w3.org/2000/svg"
     version="1.0">
    <g id="0.10759986610064953">
        <path fill="#FFFFFF"
              d="M7.512,11.341c0-0.46,0.042-0.854,0.123-1.188c0.082-0.334,0.202-0.637,0.361-0.905   c0.159-0.271,0.352-0.526,0.582-0.766C8.806,8.24,9.066,7.996,9.36,7.75c0.142-0.118,0.284-0.241,0.432-0.369   c0.147-0.13,0.278-0.265,0.397-0.406c0.115-0.141,0.213-0.29,0.289-0.448c0.076-0.159,0.115-0.325,0.115-0.502   c0-0.34-0.139-0.651-0.414-0.933C9.903,4.81,9.494,4.67,8.956,4.67c-0.54,0-1.057,0.116-1.55,0.352   C6.913,5.256,6.474,5.561,6.087,5.937L4.889,4.423C5.065,4.211,5.289,3.997,5.559,3.78C5.828,3.563,6.14,3.366,6.491,3.19   c0.353-0.176,0.746-0.319,1.18-0.432C8.105,2.647,8.574,2.592,9.08,2.592c0.762,0,1.403,0.103,1.918,0.309   c0.518,0.205,0.93,0.469,1.24,0.792s0.533,0.68,0.668,1.073s0.205,0.771,0.205,1.136c0,0.388-0.051,0.725-0.15,1.012   c-0.1,0.288-0.232,0.543-0.396,0.766c-0.164,0.224-0.352,0.426-0.562,0.607c-0.211,0.183-0.422,0.35-0.635,0.502   c-0.199,0.141-0.389,0.29-0.57,0.448c-0.184,0.158-0.348,0.338-0.494,0.537c-0.148,0.2-0.264,0.428-0.353,0.68   c-0.087,0.252-0.132,0.546-0.132,0.888H7.512z M7.302,14c0-0.41,0.135-0.756,0.404-1.03c0.271-0.276,0.604-0.414,1.004-0.414   c0.398,0,0.737,0.138,1.012,0.414c0.276,0.274,0.413,0.62,0.413,1.03c0,0.398-0.137,0.732-0.413,1.003   c-0.275,0.27-0.614,0.405-1.012,0.405c-0.399,0-0.733-0.136-1.004-0.405C7.437,14.732,7.302,14.398,7.302,14z"/>
    </g>
</svg>