
<svg x="0px" contentScriptType="text/ecmascript" y="0px" width="18.0px"
     xmlns:xlink="http://www.w3.org/1999/xlink" zoomAndPan="magnify"
     contentStyleType="text/css" height="18.0px"
     preserveAspectRatio="xMidYMid meet" xmlns="http://www.w3.org/2000/svg"
     version="1.0">
    <g id="Business_18_2_0.1907394051034823">
        <path style="fill:#FFFFFF;"
              d="M17,3v14h-3v-2h2v-2h-2v-2h2V9h-2V7h2V5h-2V3H17z M3,15v-2h2v-2H3V9h2V7H3V5h2V3H2v14h3v-2H3z M13,1   v16h-2v-3H8v3H6V1H13z M9,11H7v2h2V11z M9,7H7v2h2V7z M9,3H7v2h2V3z M12,11h-2v2h2V11z M12,7h-2v2h2V7z M12,3h-2v2h2V3z"/>
    </g>
</svg>