
<svg x="0px" contentScriptType="text/ecmascript" y="0px" width="18.0px"
     xmlns:xlink="http://www.w3.org/1999/xlink" zoomAndPan="magnify"
     contentStyleType="text/css" height="18.0px"
     preserveAspectRatio="xMidYMid meet" xmlns="http://www.w3.org/2000/svg"
     version="1.0">
    <g id="Car_rental_18-layer0.3841319128960793"/>
    <g id="0.971255318993151">
        <rect fill="#FFFFFF" width="18" fill-opacity="0" height="18"/>
        <g id="0.634030657956424">
            <path fill="#FFFFFF"
                  d="M15,11h0.5c0.275,0,0.5-0.225,0.5-0.5c0-0.273-0.225-0.5-0.5-0.5h-1.3l-0.907-1.681    C12.9,7.594,11.904,7,11.078,7c0,0-3.307,0-4.133,0H6.922c-0.826,0-1.82,0.594-2.213,1.319L3.801,10H2.5C2.225,10,2,10.227,2,10.5    C2,10.775,2.225,11,2.5,11H3c-0.551,0-0.998,0.45-0.998,1L2,16.5C2,16.775,2.225,17,2.5,17h1C3.775,17,4,16.775,4,16.5V16h10v0.5    c0,0.275,0.225,0.5,0.5,0.5h1c0.275,0,0.5-0.225,0.5-0.5V12C16,11.45,15.549,11,15,11z M5.588,8.795C5.805,8.394,6.467,8,6.945,8    h4.133c0.457,0,1.117,0.394,1.334,0.794L13.604,11H4.397L5.588,8.795z M4,14c-0.552,0-1-0.447-1-1s0.448-1,1-1s1,0.447,1,1    S4.552,14,4,14z M14,14c-0.553,0-1-0.447-1-1s0.447-1,1-1s1,0.447,1,1S14.553,14,14,14z"/>
            <path fill="#FFFFFF"
                  d="M4.5,6h2.928l1.001-1H13c0.549,0,1-0.45,1-1s-0.451-1-1-1H8.428l-1-1H4.5C4.225,2,4.002,2.225,4.002,2.5    L4,5.5C4,5.775,4.225,6,4.5,6z M5,3h1v2H5V3z"/>
        </g>
    </g>
</svg>