
<svg x="0px" contentScriptType="text/ecmascript" y="0px" width="18.0px"
     xmlns:xlink="http://www.w3.org/1999/xlink" zoomAndPan="magnify"
     contentStyleType="text/css" height="18.0px"
     preserveAspectRatio="xMidYMid meet" xmlns="http://www.w3.org/2000/svg"
     version="1.0">
    <g id="Petrol_station_18_1_0.32486171995058377">
        <path style="fill:#FFFFFF;"
              d="M12.852,2.219c-0.193-0.195-0.511-0.195-0.705,0c-0.194,0.196-0.194,0.513,0.002,0.707l1.875,1.869   L14,8.499l2,1.999v3.48C16,15.094,15.094,16,13.979,16H11v0.001l0,0C11,16,11,16,11,16V2c0-0.55-0.451-1-1-1H4   C3.45,1,3.01,1.45,3.01,2L3,16c-0.55,0-0.998,0.45-0.998,1H13.98c1.66,0,3.011-1.359,3.011-3.021L17,6.359L12.852,2.219z M4,2h6v5   H4V2z"/>
    </g>
</svg>