
<svg x="0px" contentScriptType="text/ecmascript" y="0px" width="18.0px"
     xmlns:xlink="http://www.w3.org/1999/xlink" zoomAndPan="magnify"
     contentStyleType="text/css" height="18.0px"
     preserveAspectRatio="xMidYMid meet" xmlns="http://www.w3.org/2000/svg"
     version="1.0">
    <g id="Post_office_18_1_0.019767717533686224">
        <path style="fill:#FFFFFF;"
              d="M17,5l-8,5L1,5c0-0.6,0.49-1,1.09-1h13.82C16.51,4,17,4.4,17,5z M9.795,11.271   C9.553,11.424,9.276,11.5,9,11.5s-0.553-0.076-0.795-0.229L1,6.769C1,8.576,1,12.979,1,13c0,0.553,0.447,1,1,1   c0.027,0,13.973,0,14,0c0.553,0,1-0.447,1-1c0-0.021,0-4.424,0-6.231L9.795,11.271z"/>
    </g>
</svg>