
<svg x="0px" contentScriptType="text/ecmascript" y="0px" width="18.0px"
     xmlns:xlink="http://www.w3.org/1999/xlink" zoomAndPan="magnify"
     contentStyleType="text/css" height="18.0px"
     preserveAspectRatio="xMidYMid meet" xmlns="http://www.w3.org/2000/svg"
     version="1.0">
    <g id="Bar_18-layer0.2613598467556013"/>
    <g id="0.1813743993796586">
        <rect fill="#FFFFFF" width="18" fill-opacity="0" height="18"/>
        <path fill="#FFFFFF"
              d="M15.854,1.146c-0.192-0.194-0.512-0.194-0.707,0L12.293,4H2.707c-0.277,0-0.5,0.224-0.5,0.5   c0,0.14,0.057,0.265,0.148,0.355L8,10.5V16H5c-0.551,0-1,0.45-1,1h9c0-0.55-0.451-1-1-1H9v-5.5l5.646-5.646   c0.194-0.195,0.194-0.512,0-0.707C14.549,4.049,14.421,4,14.293,4h-0.586l2.146-2.147C16.049,1.658,16.049,1.34,15.854,1.146z M8,8   C7.448,8,7,7.552,7,7s0.448-1,1-1s1,0.448,1,1S8.552,8,8,8z"/>
    </g>
</svg>