
<svg x="0px" contentScriptType="text/ecmascript" y="0px" width="18.0px"
     xmlns:xlink="http://www.w3.org/1999/xlink" zoomAndPan="magnify"
     contentStyleType="text/css" height="18.0px"
     preserveAspectRatio="xMidYMid meet" xmlns="http://www.w3.org/2000/svg"
     version="1.0">
    <g id="Coffee_18_2_0.35764106794689554">
        <path style="fill:#FFFFFF;"
              d="M17,14c0,1.104-0.896,2-2,2H3c-1.105,0-2-0.896-2-2H17z M4,12V3.001h10V3.01   c1.65,0.003,2.99,1.343,2.99,2.996c0,1.651-1.34,2.99-2.99,2.994v3c0,0.553-0.447,1-1,1H5C4.447,13,4,12.553,4,12z M14,4.01V8   c1.098-0.003,1.99-0.896,1.99-1.994C15.99,4.907,15.098,4.014,14,4.01z"/>
    </g>
</svg>