
<svg x="0px" contentScriptType="text/ecmascript" y="0px" width="18.0px"
     xmlns:xlink="http://www.w3.org/1999/xlink" zoomAndPan="magnify"
     contentStyleType="text/css" height="18.0px"
     preserveAspectRatio="xMidYMid meet" xmlns="http://www.w3.org/2000/svg"
     version="1.0">
    <g id="Library_18_6_0.9049746668260857">
        <path style="fill:#FFFFFF;"
              d="M9,3v11H3c-0.55,0-1-0.45-1-1V4c0-0.55,0.45-1,1-1H9z M17,4v9c0,0.55-0.451,1-1,1h-4v2l-1-1l-1,1V3   h6C16.549,3,17,3.45,17,4z M16,11h-5v1h5V11z M16,9h-5v1h5V9z M16,7h-5v1h5V7z M16,5h-5v1h5V5z"/>
    </g>
</svg>