
<svg x="0px" contentScriptType="text/ecmascript" y="0px" width="18.0px"
     xmlns:xlink="http://www.w3.org/1999/xlink" zoomAndPan="magnify"
     contentStyleType="text/css" height="18.0px"
     preserveAspectRatio="xMidYMid meet" xmlns="http://www.w3.org/2000/svg"
     version="1.0">
    <g id="Casino_18_2_0.9620245383839087">
        <path style="fill:#FFFFFF;"
              d="M15,2H3C2.447,2,2.002,2.447,2.002,3L2,15c0,0.553,0.447,1,1,1h12c0.553,0,1-0.447,1-1V3   C16,2.447,15.553,2,15,2z M5,15c-1.104,0-2-0.896-2-2s0.896-2,2-2s2,0.896,2,2S6.104,15,5,15z M9,11c-1.104,0-2-0.896-2-2   c0-1.104,0.896-2,2-2c1.104,0,2,0.896,2,2C11,10.104,10.104,11,9,11z M13,7c-1.104,0-2-0.896-2-2s0.896-2,2-2s2,0.896,2,2   S14.104,7,13,7z"/>
    </g>
</svg>