
<svg x="0px" contentScriptType="text/ecmascript" y="0px" width="18.0px"
     xmlns:xlink="http://www.w3.org/1999/xlink" zoomAndPan="magnify"
     contentStyleType="text/css" height="18.0px"
     preserveAspectRatio="xMidYMid meet" xmlns="http://www.w3.org/2000/svg"
     version="1.0">
    <g id="Cinema_18-layer0.8294915332882583"/>
    <g id="0.5596923109550059">
        <rect fill="#FFFFFF" width="18" fill-opacity="0" height="18"/>
        <g id="0.1890455054103678">
            <path fill="#FFFFFF"
                  d="M12.076,9V8.992C14.249,8.951,16,7.183,16,5c0-2.209-1.791-4-4-4c-1.52,0-2.822,0.855-3.5,2.101    C7.822,1.855,6.518,1,5,1C2.791,1,1.002,2.791,1.002,5S2.791,9,5,9C5.105,9,12.076,9,12.076,9z M12,4c0.553,0,1,0.448,1,1    s-0.447,1-1,1s-1-0.448-1-1S11.447,4,12,4z M4,5c0-0.552,0.448-1,1-1s1,0.448,1,1S5.552,6,5,6S4,5.552,4,5z"/>
            <path fill="#FFFFFF"
                  d="M16,10l-3,3v-2c0-0.55-0.451-1-1-1H5c-0.55,0-1,0.45-1,1v5c0,0.55,0.45,1,1,1h7c0.549,0,1-0.45,1-1v-2l3,3    h1v-7H16z"/>
        </g>
    </g>
</svg>