
<svg x="0px" contentScriptType="text/ecmascript" y="0px" width="18.0px"
     xmlns:xlink="http://www.w3.org/1999/xlink" zoomAndPan="magnify"
     contentStyleType="text/css" height="18.0px"
     preserveAspectRatio="xMidYMid meet" xmlns="http://www.w3.org/2000/svg"
     version="1.0">
    <g id="Amusement_18_5_0.5351840674949524">
        <path style="fill:#FFFFFF;"
              d="M16,7.407c-0.034,0-0.063,0.016-0.096,0.021c-0.174-1.035-0.588-1.985-1.188-2.793   c0.066-0.04,0.138-0.071,0.193-0.128c0.389-0.391,0.389-1.024,0-1.415c-0.392-0.39-1.025-0.39-1.416,0   c-0.058,0.057-0.089,0.127-0.128,0.193c-0.831-0.617-1.813-1.038-2.883-1.201C10.486,2.054,10.5,2.029,10.5,2c0-0.552-0.449-1-1-1   c-0.553,0-1,0.448-1,1c0,0.029,0.014,0.054,0.017,0.083c-1.07,0.163-2.052,0.584-2.883,1.201c-0.04-0.066-0.071-0.136-0.128-0.193   c-0.391-0.39-1.025-0.39-1.416,0c-0.391,0.391-0.391,1.024,0,1.415c0.057,0.057,0.127,0.088,0.193,0.128   c-0.6,0.808-1.015,1.758-1.188,2.793C3.063,7.423,3.034,7.407,3,7.407c-0.553,0-1,0.448-1,1c0,0.552,0.447,1,1,1   c0.024,0,0.045-0.012,0.068-0.014c0.145,1.05,0.538,2.021,1.123,2.849c-0.033,0.025-0.072,0.037-0.102,0.066   c-0.391,0.392-0.391,1.024,0,1.416c0.391,0.389,1.025,0.389,1.416,0c0.021-0.021,0.027-0.049,0.046-0.07   c0.476,0.365,1,0.666,1.565,0.889L6,17h7l-1.116-2.457c0.565-0.225,1.091-0.523,1.563-0.889c0.02,0.021,0.025,0.05,0.047,0.07   c0.391,0.389,1.025,0.389,1.416,0c0.389-0.392,0.389-1.024,0-1.416c-0.029-0.029-0.068-0.041-0.102-0.066   c0.584-0.828,0.979-1.799,1.123-2.849C15.955,9.395,15.977,9.407,16,9.407c0.553,0,1-0.448,1-1C17,7.855,16.553,7.407,16,7.407z    M11.469,13.629L9.586,9.482C10.096,9.437,10.5,9.022,10.5,8.5c0-0.552-0.449-1-1-1c-0.553,0-1,0.448-1,1   c0,0.523,0.405,0.939,0.917,0.983L7.532,13.63C5.47,12.836,4,10.839,4,8.5c0-3.032,2.467-5.499,5.5-5.499S15,5.468,15,8.5   C15,10.839,13.531,12.835,11.469,13.629z"/>
    </g>
</svg>