
<svg x="0px" contentScriptType="text/ecmascript" y="0px" width="18.0px"
     xmlns:xlink="http://www.w3.org/1999/xlink" zoomAndPan="magnify"
     contentStyleType="text/css" height="18.0px"
     preserveAspectRatio="xMidYMid meet" xmlns="http://www.w3.org/2000/svg"
     version="1.0">
    <g id="Attraction_18_2_0.6821682956283591">
        <path style="fill:#FFFFFF;"
              d="M11,6.05C9.369,6.05,8.049,7.369,8.049,9c0,1.629,1.32,2.95,2.951,2.95   c1.629,0,2.95-1.321,2.95-2.95C13.95,7.369,12.629,6.05,11,6.05z M11,11.1c-1.161,0-2.1-0.938-2.1-2.1c0-1.158,0.938-2.1,2.1-2.1   c1.158,0,2.1,0.941,2.1,2.1C13.1,10.16,12.158,11.1,11,11.1z M16,4H6c0-0.55-0.451-1-1-1H4C3.45,3,3,3.45,3,4H2   C1.45,4,1.01,4.45,1.01,5L1,13c0,0.55,0.45,1,1,1h14c0.549,0,1-0.45,1-1V5C17,4.45,16.549,4,16,4z M6,7H3V6h3V7z M11,13.15   c-2.293,0-4.15-1.857-4.15-4.15S8.707,4.85,11,4.85S15.148,6.707,15.148,9S13.293,13.15,11,13.15z"/>
    </g>
</svg>