
<svg x="0px" contentScriptType="text/ecmascript" y="0px" width="18.0px"
     xmlns:xlink="http://www.w3.org/1999/xlink" zoomAndPan="magnify"
     contentStyleType="text/css" height="18.0px"
     preserveAspectRatio="xMidYMid meet" xmlns="http://www.w3.org/2000/svg"
     version="1.0">
    <g id="Ferry_18_1_0.016665415975485875">
        <path style="fill:#FFFFFF;"
              d="M17,10l-2,7c0-1.1-1.34-2-3-2s-3,0.9-3,2c0-1.1-1.34-2-3-2s-3,0.9-3,2l-2-7l8-3L17,10z M13,3h-3V1H8   v2H5C4.45,3,4,3.45,4,4v3l4.6-1.5C8.73,5.46,8.869,5.44,9,5.44c0.13,0,0.27,0.02,0.39,0.06L14,7V4C14,3.45,13.549,3,13,3z"/>
    </g>
</svg>