
<svg x="0px" contentScriptType="text/ecmascript" y="0px" width="18.0px"
     xmlns:xlink="http://www.w3.org/1999/xlink" zoomAndPan="magnify"
     contentStyleType="text/css" height="18.0px"
     preserveAspectRatio="xMidYMid meet" xmlns="http://www.w3.org/2000/svg"
     version="1.0">
    <g id="Intercity_train_18-layer0.10067274210215849"/>
    <g id="0.08337998436607197">
        <rect fill="#FFFFFF" width="18" fill-opacity="0" height="18"/>
        <g id="0.03249776814850547">
            <path fill="#FFFFFF"
                  d="M8.85,1C5.618,1,3.01,3.619,3.01,6.85L3,11.4C3,12.83,4.168,14,5.6,14h6.8c1.431,0,2.59-1.17,2.59-2.6    L15,6.85C15,3.619,12.082,1,8.85,1z M5.07,4H8.5v3H4C4,5.86,4.412,4.827,5.07,4z M5,12c-0.552,0-1-0.447-1-1s0.448-1,1-1    s1,0.447,1,1S5.552,12,5,12z M13,12c-0.553,0-1-0.447-1-1s0.447-1,1-1s1,0.447,1,1S13.553,12,13,12z M9.5,7V4h3.428    C13.59,4.835,14,5.873,14,7H9.5z"/>
            <polygon fill="#FFFFFF"
                     points="13,15 12,15 12,16 6,16 6,15 5,15 5,16 4,16 4,17 14,17 14,16 13,16   "/>
        </g>
    </g>
</svg>