
<svg x="0px" contentScriptType="text/ecmascript" y="0px" width="18.0px"
     xmlns:xlink="http://www.w3.org/1999/xlink" zoomAndPan="magnify"
     contentStyleType="text/css" height="18.0px"
     preserveAspectRatio="xMidYMid meet" xmlns="http://www.w3.org/2000/svg"
     version="1.0">
    <g id="Facilities_18_1_0.345510700392595">
        <path style="fill:#FFFFFF;"
              d="M9.5,0L3,4v13h5v-4h3v4h5V4L9.5,0z M7,16H4v-3h3V16z M7,12H4V9h3V12z M7,8H4V5h3V8z M11,12H8V9h3V12   z M11,8H8V5h3V8z M15,16h-3v-3h3V16z M15,12h-3V9h3V12z M15,8h-3V5h3V8z"/>
    </g>
</svg>