
<svg x="0px" contentScriptType="text/ecmascript" y="0px" width="18.0px"
     xmlns:xlink="http://www.w3.org/1999/xlink" zoomAndPan="magnify"
     contentStyleType="text/css" height="18.0px"
     preserveAspectRatio="xMidYMid meet" xmlns="http://www.w3.org/2000/svg"
     version="1.0">
    <g id="Going_out_18_2_0.32478680319060504">
        <path style="fill:#FFFFFF;"
              d="M2,1v8.96C2,13.832,5.15,17,9,17c3.85,0,7-3.168,7-7.04V1H2z M6,4c1.104,0,2,0.896,2,2   c0,0.366,0,1,0,1H4c0,0,0-0.634,0-1C4,4.896,4.895,4,6,4z M9.016,15.094C6.355,15.094,4.146,13.516,4,11c1.109,0.9,2.936,1,5,1   c2.064,0,3.891-0.1,5-1C13.852,13.516,11.676,15.094,9.016,15.094z M14,7h-4c0,0,0-0.634,0-1c0-1.104,0.895-2,2-2   c1.104,0,2,0.896,2,2C14,6.366,14,7,14,7z"/>
    </g>
</svg>