
<svg x="0px" contentScriptType="text/ecmascript" y="0px" width="18.0px"
     xmlns:xlink="http://www.w3.org/1999/xlink" zoomAndPan="magnify"
     contentStyleType="text/css" height="18.0px"
     preserveAspectRatio="xMidYMid meet" xmlns="http://www.w3.org/2000/svg"
     version="1.0">
    <g id="Police_18_1_0.5076094244178562">
        <path style="fill:#FFFFFF;"
              d="M14,9v3l0,0c0,2.762-2.238,5-5,5c-2.76,0-5-2.238-5-5l0,0V9c1.27,0.695,3.04,1,5,1   S12.729,9.695,14,9z M16,5.166L14,8H9H4L2,5.166L9,1L16,5.166z M11,4.707C11,4.461,10.956,4.228,10.891,4H7.109   C7.044,4.228,7,4.461,7,4.707c0,1.189,0.827,2.206,2,2.627C10.173,6.913,11,5.896,11,4.707z"/>
    </g>
</svg>