
<svg x="0px" contentScriptType="text/ecmascript" y="0px" width="18.0px"
     xmlns:xlink="http://www.w3.org/1999/xlink" zoomAndPan="magnify"
     contentStyleType="text/css" height="18.0px"
     preserveAspectRatio="xMidYMid meet" xmlns="http://www.w3.org/2000/svg"
     version="1.0">
    <g id="Education_18_1_0.22444887668814983">
        <path style="fill:#FFFFFF;"
              d="M4,10h10v2.014C13.992,14.77,11.758,17,9,17s-4.992-2.23-4.998-4.986H4V10z M18,6L9,1L0,6v1h1v2   c-0.551,0-1,0.45-1,1v3c0,0.55,0.449,1,1,1h1c0.551,0,1-0.45,1-1v-3c0-0.55-0.449-1-1-1V7h2v2h10V7h4V6z"/>
    </g>
</svg>