
<svg x="0px" contentScriptType="text/ecmascript" y="0px" width="18.0px"
     xmlns:xlink="http://www.w3.org/1999/xlink" zoomAndPan="magnify"
     contentStyleType="text/css" height="18.0px"
     preserveAspectRatio="xMidYMid meet" xmlns="http://www.w3.org/2000/svg"
     version="1.0">
    <g id="Public_toilet_180.4147921963044712">
        <path style="fill:#FFFFFF;"
              d="M12.01,3.499C12.01,2.672,12.674,2,13.502,2C14.328,2,15,2.672,15,3.499C15,4.327,14.328,5,13.502,5   C12.674,5,12.01,4.327,12.01,3.499z M5.496,5C6.326,5,7,4.327,7,3.499C7,2.672,6.326,2,5.496,2S4.01,2.672,4.01,3.499   C4.01,4.327,4.666,5,5.496,5z M17,6.5C17,6.22,16.779,6,16.5,6h-6C10.219,6,10,6.22,10,6.5v4c0,0.275,0.225,0.5,0.5,0.5   s0.5-0.225,0.5-0.5V7h1v9.5c0,0.275,0.225,0.5,0.5,0.5s0.5-0.225,0.5-0.5V12h1v4.5c0,0.275,0.225,0.5,0.5,0.5s0.5-0.225,0.5-0.5V7   h1v3.5c0,0.275,0.225,0.5,0.5,0.5s0.5-0.225,0.5-0.5V6.5z M8.25,6.312C8.201,6.191,8.109,6.104,8,6.053V6.05L7.993,6.048   C7.931,6.02,7.863,6.001,7.793,6H7.79H3.21H3.207c-0.07,0.001-0.138,0.02-0.201,0.048L3,6.05v0.003   C2.891,6.104,2.799,6.191,2.75,6.312l-1.562,3.833c-0.104,0.254,0.021,0.547,0.274,0.65c0.254,0.104,0.547-0.02,0.651-0.273   L3.549,7h0.868l-1.509,4.525C2.821,11.787,2.975,12,3.25,12H4v4c0,0.55,0.45,1,1,1h1c0.549,0,1-0.45,1-1v-4h0.75   c0.275,0,0.428-0.213,0.342-0.475L6.583,7H7.45h0.001l1.434,3.521c0.104,0.254,0.398,0.377,0.652,0.272s0.379-0.396,0.273-0.651   L8.25,6.312z"/>
    </g>
</svg>