
<svg x="0px" contentScriptType="text/ecmascript" y="0px" width="18.0px"
     xmlns:xlink="http://www.w3.org/1999/xlink" zoomAndPan="magnify"
     contentStyleType="text/css" height="18.0px"
     preserveAspectRatio="xMidYMid meet" xmlns="http://www.w3.org/2000/svg"
     version="1.0">
    <g id="Sport_18_6_0.2030488787937741">
        <path style="fill:#FFFFFF;"
              d="M15,6h-1V2l2.5,1.25L15,4V6z M9,4l1.5-0.75L8,2v4h1V4z M3,4l1.5-0.75L2,2v4h1V4z M12.713,10l1-1   H4.287l1,1H12.713z M13.127,11H4.873L1,7.131V16h7v-3c0.002-0.55,0.451-1,1-1s1,0.449,1,0.999V16h7V7.129L13.127,11z M15.714,7   H2.285l1.002,1h11.426L15.714,7z"/>
    </g>
</svg>