
<svg x="0px" contentScriptType="text/ecmascript" y="0px" width="18.0px"
     xmlns:xlink="http://www.w3.org/1999/xlink" zoomAndPan="magnify"
     contentStyleType="text/css" height="18.0px"
     preserveAspectRatio="xMidYMid meet" xmlns="http://www.w3.org/2000/svg"
     version="1.0">
    <g id="Pharmacy_18_2_0.8993136946068748">
        <path style="fill:#FFFFFF;"
              d="M14.5,4h-10C3.672,4,3.01,4.672,3.01,5.5L3,16c0,0.553,0.447,1,1,1h11c0.553,0,1-0.447,1-1V5.5   C16,4.672,15.328,4,14.5,4z M11,15H8v-3H5V9h3V6h3v3h3v3h-3V15z M14,2v1H5l0.01-1c0-0.553,0.438-1,0.99-1h7C13.553,1,14,1.447,14,2   z"/>
    </g>
</svg>