
<svg x="0px" contentScriptType="text/ecmascript" y="0px" width="18.0px"
     xmlns:xlink="http://www.w3.org/1999/xlink" zoomAndPan="magnify"
     contentStyleType="text/css" height="18.0px"
     preserveAspectRatio="xMidYMid meet" xmlns="http://www.w3.org/2000/svg"
     version="1.0">
    <g id="Religious_place_18_2_0.9901655589652082">
        <path style="fill:#FFFFFF;"
              d="M9,17H2v-2h7V17z M2.156,14h6.689C9.561,13.393,10,12.59,10,11.709c0-1.167-0.402-2.162-1.926-3.187   L5.998,7.104L5.5,2L5.004,7.104L2.926,8.522C1.402,9.547,1,10.542,1,11.709C1,12.59,1.439,13.393,2.156,14z M12.5,2L9.35,7.602   c1.457,1.116,2.15,2.433,2.15,4.107c0,1.209-0.541,2.348-1.5,3.245V17h2v-3l1-1l1,1v3h3v-7L12.5,2z"/>
    </g>
</svg>