
<svg x="0px" contentScriptType="text/ecmascript" y="0px" width="18.0px"
     xmlns:xlink="http://www.w3.org/1999/xlink" zoomAndPan="magnify"
     contentStyleType="text/css" height="18.0px"
     preserveAspectRatio="xMidYMid meet" xmlns="http://www.w3.org/2000/svg"
     version="1.0">
    <g id="Airport_18_1_0.6321419202099628">
        <path style="fill:#FFFFFF;"
              d="M11.875,4.078l-9,0.031c-0.223-0.01-0.448,0.068-0.621,0.24L1.123,5.435   c-0.16,0.161-0.164,0.419-0.006,0.578C1.176,6.07,1.246,6.104,1.32,6.119l0,0l7.094,1.767c-1.365,1.476-2.373,2.653-3.089,3.534   l-2.382-0.605v0.002c-0.152-0.037-0.316,0.002-0.441,0.111L2.5,10.925l-0.288,0.288l4.575,4.577l0.289-0.288L7.074,15.5   c0.111-0.124,0.148-0.289,0.111-0.441l0.002-0.002l-0.605-2.381c0.88-0.715,2.059-1.724,3.533-3.088l1.766,7.094l0,0   c0.018,0.075,0.051,0.146,0.107,0.202c0.158,0.156,0.419,0.155,0.578-0.005l1.137-1.098c0.158-0.159,0.236-0.366,0.24-0.574l0,0   l-0.037-9.113c0.851-0.837,3.799-4.018,2.914-4.903C15.938,0.306,12.713,3.229,11.875,4.078z"/>
    </g>
</svg>