
<svg x="0px" contentScriptType="text/ecmascript" y="0px" width="18.0px"
     xmlns:xlink="http://www.w3.org/1999/xlink" zoomAndPan="magnify"
     contentStyleType="text/css" height="18.0px"
     preserveAspectRatio="xMidYMid meet" xmlns="http://www.w3.org/2000/svg"
     version="1.0">
    <g id="Taxi_18-layer0.9611890578986304"/>
    <g id="0.8919411395869272">
        <rect width="18" height="18" fill-opacity="0"/>
        <path fill="#FFFFFF"
              d="M15,8h1.5C16.775,8,17,7.776,17,7.5S16.775,7,16.5,7h-1.926c-0.109-0.515-0.197-0.928-0.197-0.928   C14.098,4.933,12.936,4,11.793,4H11V3.5C11,3.22,10.779,3,10.5,3h-3C7.219,3,7,3.22,7,3.5V4H6.209C5.064,4,3.9,4.933,3.625,6.072   c0,0-0.088,0.413-0.197,0.928H1.5C1.223,7,1.002,7.224,1.002,7.5S1.223,8,1.5,8H3c-1.105,0-1.998,0.896-1.998,2   C1.002,10.062,1,12.5,1,12.5c0,0.654,0.418,1.202,1,1.408V15.5C2,15.78,2.219,16,2.5,16h1C3.779,16,4,15.78,4,15.5V14h10v1.5   c0,0.28,0.219,0.5,0.5,0.5h1c0.279,0,0.5-0.22,0.5-0.5v-1.592c0.582-0.206,1-0.754,1-1.408V10C17,8.9,16.1,8,15,8z M4.646,6.185   C4.779,5.639,5.451,5,6,5h6c0.549,0,1.234,0.7,1.367,1.245L13.771,8C11.469,8,6.532,8,4.23,8L4.646,6.185z M4,12   c-0.552,0-1-0.447-1-1s0.448-1,1-1s1,0.447,1,1S4.552,12,4,12z M14,12c-0.553,0-1-0.447-1-1s0.447-1,1-1s1,0.447,1,1   S14.553,12,14,12z"/>
    </g>
</svg>