
<svg x="0px" contentScriptType="text/ecmascript" y="0px" width="14.0px"
     xmlns:xlink="http://www.w3.org/1999/xlink" zoomAndPan="magnify"
     contentStyleType="text/css" height="14.0px"
     preserveAspectRatio="xMidYMid meet" xmlns="http://www.w3.org/2000/svg"
     version="1.0">
    <g id="Eat__x26__Drink_14-layer0.478366322776247"/>
    <g id="ICONS0.4389467370091976">
        <g id="Eat__x26__Drink_14_1_0.7122527323133023">
            <path style="fill:#FFFFFF;"
                  d="M6,1.5V5L5,7v5.5C5,12.779,4.781,13,4.5,13h-2C2.219,13,2,12.779,2,12.5V7L1,5V1.5    C1,1.224,1.224,1,1.5,1C1.775,1,2,1.224,2,1.5V4h1V1.5C3,1.224,3.224,1,3.5,1C3.775,1,4,1.224,4,1.5V4h1V1.5    C5,1.224,5.224,1,5.5,1C5.775,1,6,1.224,6,1.5z M11.5,1H11c-0.77,0-1.469,0.48-2,1.279C8.38,3.189,8.01,4.52,8.01,6L8,7.5    C8,7.779,8.219,8,8.5,8H9v4.5C9,12.779,9.219,13,9.5,13h2c0.281,0,0.5-0.221,0.5-0.5v-11C12,1.221,11.781,1,11.5,1z"/>
        </g>
    </g>
</svg>