
<svg x="0px" contentScriptType="text/ecmascript" y="0px" width="14.0px"
     xmlns:xlink="http://www.w3.org/1999/xlink" zoomAndPan="magnify"
     contentStyleType="text/css" height="14.0px"
     preserveAspectRatio="xMidYMid meet" xmlns="http://www.w3.org/2000/svg"
     version="1.0">
    <g id="Public_transport_14-layer0.6003152624841758"/>
    <g id="ICONS0.43952352440821996">
        <g id="Public_transport_140.9901044147217327">
            <path style="fill:#FFFFFF;"
                  d="M12.666,5H12V4.998V3.5C12,2.675,11.324,2,10.5,2h-4C5.675,2,5.01,2.675,5.01,3.5L5,4h0.5    c0.65,0,1.197,0.42,1.404,1H10.5C10.775,5,11,5.225,11,5.5V8h-1v1h1v1h-1v2.5c0,0.275,0.225,0.5,0.5,0.5s0.5-0.225,0.5-0.5v-0.568    C11.197,11.973,11.35,12,11.35,12c0.357,0,0.65-0.292,0.65-0.649V7h0.666C12.85,7,13,6.85,13,6.667V5.333    C13,5.15,12.85,5,12.666,5z M10.5,4h-4C6.225,4,6,3.775,6,3.5S6.225,3,6.5,3h4C10.775,3,11,3.225,11,3.5S10.775,4,10.5,4z M8,8    h0.5C8.775,8,9,7.775,9,7.5S8.775,7,8.5,7c0,0-0.721,0.012-0.748,0.017C7.6,6.456,7.014,6,6.434,6H6V5.5C6,5.225,5.775,5,5.5,5h-1    C4.225,5,4.01,5.225,4.01,5.5L4,6H3.566C2.986,6,2.4,6.456,2.25,7.017C2.221,7.012,1.5,7,1.5,7C1.225,7,1.01,7.225,1.01,7.5    S1.225,8,1.5,8H2C1.45,8,1,8.997,1,9.547v2.08C1,11.832,1.168,12,1.373,12H2v0.5C2,12.775,2.225,13,2.5,13S3,12.775,3,12.5V12h4    v0.5C7,12.775,7.225,13,7.5,13S8,12.775,8,12.5V12h0.627C8.832,12,9,11.832,9,11.627l-0.01-2.08C8.99,8.997,8.549,8,8,8z M3,10H2    V9h1V10z M3,8l0.211-0.722C3.242,7.153,3.438,7,3.566,7h2.867c0.129,0,0.324,0.153,0.355,0.278L7,8H3z M8,10H7V9h1V10z"/>
        </g>
    </g>
</svg>