
<svg x="0px" contentScriptType="text/ecmascript" y="0px" width="14.0px"
     xmlns:xlink="http://www.w3.org/1999/xlink" zoomAndPan="magnify"
     contentStyleType="text/css" height="14.0px"
     preserveAspectRatio="xMidYMid meet" xmlns="http://www.w3.org/2000/svg"
     version="1.0">
    <g id="Question_mark_14-layer0.8011647894294288"/>
    <g id="Isolationsmodus0.27948231039346727">
        <g id="Question_mark_14_3_0.8919422168678722">
            <path style="fill:#FFFFFF;"
                  d="M6.002,9.924C6.053,9.177,6.145,8.67,6.453,8.145C6.756,7.62,7.347,7.081,7.688,6.791    c0.8-0.647,1.172-1.131,1.172-1.664c0-0.285-0.213-1.348-1.609-1.348c-1.038,0-1.966,0.499-2.648,1.133l-0.978-1.27    C4.799,2.48,6.085,2.064,7.365,2.064c2.189,0,3.124,1.052,3.432,1.935c0.247,0.727,0.318,1.745-0.301,2.593    c-0.491,0.66-0.989,0.877-1.615,1.418C8.448,8.385,7.976,8.975,7.947,9.924H6.002z M7.992,11h-2v2h2V11z"/>
        </g>
    </g>
</svg>