
<svg x="0px" contentScriptType="text/ecmascript" y="0px" width="14.0px"
     xmlns:xlink="http://www.w3.org/1999/xlink" zoomAndPan="magnify"
     contentStyleType="text/css" height="14.0px"
     preserveAspectRatio="xMidYMid meet" xmlns="http://www.w3.org/2000/svg"
     version="1.0">
    <g id="Business_14-layer0.6249577169650267"/>
    <g id="ICONS0.8075795109105127">
        <g id="Business_14_4_0.3756086274408611">
            <path style="fill:#FFFFFF;"
                  d="M3,12v1H1V3h2v1H2v2h1v1H2v2h1v1H2v2H3z M11,3v1h1v2h-1v1h1v2h-1v1h1v2h-1v1h2V3H11z M10,1v12H8v-2    H6v2H4V1H10z M8,8H6v2h2V8z M8,5H6v2h2V5z M8,2H6v2h2V2z"/>
        </g>
    </g>
</svg>