
<svg x="0px" contentScriptType="text/ecmascript" y="0px" width="14.0px"
     xmlns:xlink="http://www.w3.org/1999/xlink" zoomAndPan="magnify"
     contentStyleType="text/css" height="14.0px"
     preserveAspectRatio="xMidYMid meet" xmlns="http://www.w3.org/2000/svg"
     version="1.0">
    <g id="Petrol_station_14-layer0.029974243451580174"/>
    <g id="ICONS0.08105216556074768">
        <g id="Petrol_station_14_1_0.020152358051150454">
            <path style="fill:#FFFFFF;"
                  d="M12.854,4.592l-2.445-2.445c-0.195-0.195-0.512-0.195-0.707,0s-0.195,0.512,0,0.707L11,4.152V7l1,1    v2.667C12,11.402,11.402,12,10.668,12H9V2c0-0.55-0.451-1-1-1H3C2.45,1,2.002,1.45,2.002,2L2,12c-0.55,0-0.998,0.45-0.998,1h9.666    c1.282,0,2.322-1.05,2.322-2.333L13,5C13,5,12.964,4.702,12.854,4.592z M3,2h5v4H3V2z"/>
        </g>
    </g>
</svg>