
<svg x="0px" contentScriptType="text/ecmascript" y="0px" width="14.0px"
     xmlns:xlink="http://www.w3.org/1999/xlink" zoomAndPan="magnify"
     contentStyleType="text/css" height="14.0px"
     preserveAspectRatio="xMidYMid meet" xmlns="http://www.w3.org/2000/svg"
     version="1.0">
    <g id="Library_14-layer0.6414541496153134"/>
    <g id="ICONS0.11750426418753823">
        <g id="Library_14_6_0.35747866150658625">
            <path style="fill:#FFFFFF;"
                  d="M6,2v9H2c-0.55,0-1-0.45-1-1V3c0-0.55,0.45-1,1-1H6z M13,3v7c0,0.55-0.451,1-1,1H9v2l-0.998-1L7,13    V2h5C12.549,2,13,2.45,13,3z M12,8H8v1h4V8z M12,6H8v1h4V6z M12,4H8v1h4V4z"/>
        </g>
    </g>
</svg>