
<svg x="0px" contentScriptType="text/ecmascript" y="0px" width="14.0px"
     xmlns:xlink="http://www.w3.org/1999/xlink" zoomAndPan="magnify"
     contentStyleType="text/css" height="14.0px"
     preserveAspectRatio="xMidYMid meet" xmlns="http://www.w3.org/2000/svg"
     version="1.0">
    <g id="Nightclub_14-layer0.324346541598144"/>
    <g id="ICONS0.9415470527462755">
        <g id="Nightclub_14_4_0.7763011627184982">
            <path style="fill:#FFFFFF;"
                  d="M5.5,2C3.014,2,1.002,4.014,1.002,6.5c0,2.485,2.012,4.5,4.498,4.5S10,8.985,10,6.5    C10,4.014,7.986,2,5.5,2z M5.5,8.75c-1.241,0-2.25-1.01-2.25-2.25S4.259,4.25,5.5,4.25c1.24,0,2.25,1.01,2.25,2.25    S6.74,8.75,5.5,8.75z M6,7H5V6h1V7z M13,1v6.756c0,0.049-0.02,0.979-0.502,2.5l0.042,0.018L11.424,13l-1.68-0.688l1.117-2.727    l0.707,0.29C11.977,8.559,12,7.76,12,7.75V4h-1V1H13z"/>
        </g>
    </g>
</svg>