
<svg x="0px" contentScriptType="text/ecmascript" y="0px" width="14.0px"
     xmlns:xlink="http://www.w3.org/1999/xlink" zoomAndPan="magnify"
     contentStyleType="text/css" height="14.0px"
     preserveAspectRatio="xMidYMid meet" xmlns="http://www.w3.org/2000/svg"
     version="1.0">
    <g id="Nature_14-layer0.8450303557455264"/>
    <g id="ICONS0.6825762300922074">
        <g id="Nature_14_5_0.3824838481385501">
            <path style="fill:#FFFFFF;"
                  d="M2,8.011C2,4.32,5.321,1,5.321,1s0.755,0.762,1.545,1.953C6.052,3.364,5.264,3.887,4.584,4.566    C3.191,5.958,2.818,8.022,3.523,9.779l-0.545,0.545C2.385,9.727,2,8.922,2,8.011z M5.645,5.627    c-1.207,1.207-1.282,3.101-0.258,4.411L3.194,12.23c-0.167,0.167-0.167,0.441,0,0.607l0.036,0.036    c0.168,0.168,0.441,0.168,0.608,0l2.198-2.198c1.309,0.962,3.152,0.862,4.336-0.321C13,7.729,13,3,13,3S8.271,3,5.645,5.627z"/>
        </g>
    </g>
</svg>