
<svg x="0px" contentScriptType="text/ecmascript" y="0px" width="14.0px"
     xmlns:xlink="http://www.w3.org/1999/xlink" zoomAndPan="magnify"
     contentStyleType="text/css" height="14.0px"
     preserveAspectRatio="xMidYMid meet" xmlns="http://www.w3.org/2000/svg"
     version="1.0">
    <g id="Pharmacy_14-layer0.23407961208561645"/>
    <g id="ICONS0.9662055570590959">
        <g id="Pharmacy_14_1_0.6615722796420626">
            <path style="fill:#FFFFFF;"
                  d="M11,2v1H3.01V2c0-0.553,0.438-1,0.99-1h6C10.553,1,11,1.447,11,2z M12,5.5V12c0,0.553-0.447,1-1,1    H3c-0.553,0-1-0.447-1-1l0.01-6.5C2.01,4.672,2.672,4,3.5,4h7C11.328,4,12,4.672,12,5.5z M10,7H8V5H6v2H4v2h2v2h2V9h2V7z"/>
        </g>
    </g>
</svg>