
<svg x="0px" contentScriptType="text/ecmascript" y="0px" width="14.0px"
     xmlns:xlink="http://www.w3.org/1999/xlink" zoomAndPan="magnify"
     contentStyleType="text/css" height="14.0px"
     preserveAspectRatio="xMidYMid meet" xmlns="http://www.w3.org/2000/svg"
     version="1.0">
    <g id="Ferry_14-layer0.0021474772776847173"/>
    <g id="ICONS0.49881650803431576">
        <g id="Ferry_14_4_0.8838367780580882">
            <path style="fill:#FFFFFF;"
                  d="M13,8l-2,5h-0.11C10.61,12.42,9.869,11.848,9,11.848c-0.87,0-1.61,0.572-1.881,1.152H6.89    C6.61,12.42,5.869,11.848,5,11.848c-0.87,0-1.61,0.572-1.881,1.152H3L1,8l6-2L13,8z M7,4.5c0.16,0,0.32,0.025,0.475,0.077    L11,5.752V4c0-0.55-0.451-1-1-1H8V1H6v2H4C3.45,3,3,3.45,3,4v1.752l3.525-1.175C6.68,4.525,6.84,4.5,7,4.5z"/>
        </g>
    </g>
</svg>