
<svg x="0px" contentScriptType="text/ecmascript" y="0px" width="14.0px"
     xmlns:xlink="http://www.w3.org/1999/xlink" zoomAndPan="magnify"
     contentStyleType="text/css" height="14.0px"
     preserveAspectRatio="xMidYMid meet" xmlns="http://www.w3.org/2000/svg"
     version="1.0">
    <g id="Taxi_14-layer0.5500180260433505"/>
    <g id="ICONS0.6740391907573254">
        <g id="Taxi_14_5_0.5918314150114604">
            <path style="fill:#FFFFFF;"
                  d="M12.08,6.12c0-0.021-0.021-0.061-0.04-0.12h0.46C12.779,6,13,5.78,13,5.5S12.779,5,12.5,5h-0.84    c-0.07-0.2-0.13-0.34-0.13-0.34C11.32,3.8,10.45,3.1,9.59,3.1H9V2H6v1.1H5.41c-0.861,0-1.73,0.7-1.941,1.561    c0,0-0.059,0.14-0.129,0.34H2.5C2.219,5,2.01,5.22,2.01,5.5S2.219,6,2.5,6h0.48C2.96,6.04,2.95,6.08,2.94,6.11    C2.39,6.33,2.01,6.87,2.01,7.5L2,10.5C2,10.78,2.219,11,2.5,11H3v1h2v-1h5v1h2v-1h0.5c0.279,0,0.5-0.22,0.5-0.5v-3    C13,6.881,12.619,6.34,12.08,6.12z M5,9H3V7h2V9z M4,6V5.96L4.41,4.9C4.51,4.49,5,4,5.41,4h4.18c0.41,0,0.9,0.49,1,0.9L11,5.91V6    H4z M12,9h-2V7h2V9z"/>
        </g>
    </g>
</svg>